<svg xmlns="http://www.w3.org/2000/svg" width="560" height="400" viewBox="0 0 560 400" role="img" aria-labelledby="title desc"><title id="title">uₙ = (3/2)ⁿ</title><desc id="desc">Suite géométrique de premier terme 1 et de raison 3/2. Chaque valeur est multipliée par 3/2.</desc>
<rect width="560" height="400" fill="#fcfbf7" rx="8"/>
<text x="24" y="32" fill="#273d35" font-family="sans-serif" font-size="21" font-weight="600">uₙ = (3/2)ⁿ</text>
<path d="M64.000 62V346" stroke="#dfdfd6"/>
<text x="64.000" y="369.000" text-anchor="middle" font-family="sans-serif" font-size="16" fill="#34433b">0</text>
<path d="M140.000 62V346" stroke="#dfdfd6"/>
<text x="140.000" y="369.000" text-anchor="middle" font-family="sans-serif" font-size="16" fill="#34433b">1</text>
<path d="M216.000 62V346" stroke="#dfdfd6"/>
<text x="216.000" y="369.000" text-anchor="middle" font-family="sans-serif" font-size="16" fill="#34433b">2</text>
<path d="M292.000 62V346" stroke="#dfdfd6"/>
<text x="292.000" y="369.000" text-anchor="middle" font-family="sans-serif" font-size="16" fill="#34433b">3</text>
<path d="M368.000 62V346" stroke="#dfdfd6"/>
<text x="368.000" y="369.000" text-anchor="middle" font-family="sans-serif" font-size="16" fill="#34433b">4</text>
<path d="M444.000 62V346" stroke="#dfdfd6"/>
<text x="444.000" y="369.000" text-anchor="middle" font-family="sans-serif" font-size="16" fill="#34433b">5</text>
<path d="M520.000 62V346" stroke="#dfdfd6"/>
<text x="520.000" y="369.000" text-anchor="middle" font-family="sans-serif" font-size="16" fill="#34433b">6</text>
<path d="M64 346.000H520" stroke="#dfdfd6"/>
<path d="M64 275.000H520" stroke="#dfdfd6"/>
<text x="51" y="280.000" text-anchor="end" font-family="sans-serif" font-size="16" fill="#34433b">2</text>
<path d="M64 204.000H520" stroke="#dfdfd6"/>
<text x="51" y="209.000" text-anchor="end" font-family="sans-serif" font-size="16" fill="#34433b">4</text>
<path d="M64 133.000H520" stroke="#dfdfd6"/>
<text x="51" y="138.000" text-anchor="end" font-family="sans-serif" font-size="16" fill="#34433b">6</text>
<path d="M64 62.000H520" stroke="#dfdfd6"/>
<text x="51" y="67.000" text-anchor="end" font-family="sans-serif" font-size="16" fill="#34433b">8</text>
<path d="M64 55V349 M60 346.000H528" stroke="#34433b" stroke-width="1.7" fill="none"/>
<text x="533" y="351.000" font-family="sans-serif" font-size="17" fill="#34433b">n</text>
<text x="41" y="49" font-family="sans-serif" font-size="17" fill="#34433b">uₙ</text>
<path d="M59.000 310.500H69.000 M64.000 305.500V315.500" stroke="#245a48" stroke-width="3" stroke-linecap="round"><title>n = 0 ; u = 1</title></path>
<path d="M135.000 292.750H145.000 M140.000 287.750V297.750" stroke="#245a48" stroke-width="3" stroke-linecap="round"><title>n = 1 ; u = 3/2</title></path>
<path d="M211.000 266.125H221.000 M216.000 261.125V271.125" stroke="#245a48" stroke-width="3" stroke-linecap="round"><title>n = 2 ; u = 9/4</title></path>
<path d="M287.000 226.188H297.000 M292.000 221.188V231.188" stroke="#245a48" stroke-width="3" stroke-linecap="round"><title>n = 3 ; u = 27/8</title></path>
<path d="M363.000 166.281H373.000 M368.000 161.281V171.281" stroke="#245a48" stroke-width="3" stroke-linecap="round"><title>n = 4 ; u = 81/16</title></path>
<path d="M439.000 76.422H449.000 M444.000 71.422V81.422" stroke="#245a48" stroke-width="3" stroke-linecap="round"><title>n = 5 ; u = 243/32</title></path>
</svg>
